<svg width="31" height="30" viewBox="0 0 31 30" fill="none" xmlns="http://www.w3.org/2000/svg">
<path d="M12.6531 27.75C12.6531 27.8125 12.6597 27.9687 12.6728 28.2188C12.686 28.4688 12.6893 28.6758 12.6827 28.8398C12.6761 29.0039 12.6564 29.1875 12.6234 29.3906C12.5905 29.5938 12.5246 29.7461 12.4257 29.8477C12.3268 29.9492 12.1918 30 12.0204 30H5.69388C4.12543 30 2.78433 29.3398 1.6706 28.0195C0.556867 26.6992 0 25.1094 0 23.25V6.75C0 4.89062 0.556867 3.30078 1.6706 1.98047C2.78433 0.660156 4.12543 0 5.69388 0H12.0204C12.1918 0 12.34 0.0742187 12.4652 0.222656C12.5905 0.371094 12.6531 0.546875 12.6531 0.75C12.6531 0.8125 12.6597 0.96875 12.6728 1.21875C12.686 1.46875 12.6893 1.67578 12.6827 1.83984C12.6761 2.00391 12.6564 2.1875 12.6234 2.39062C12.5905 2.59375 12.5246 2.74609 12.4257 2.84766C12.3268 2.94922 12.1918 3 12.0204 3H5.69388C4.82398 3 4.07929 3.36719 3.45982 4.10156C2.84035 4.83594 2.53061 5.71875 2.53061 6.75V23.25C2.53061 24.2812 2.84035 25.1641 3.45982 25.8984C4.07929 26.6328 4.82398 27 5.69388 27H11.8622L12.0896 27.0234L12.317 27.0938L12.4751 27.2227L12.6135 27.4336L12.6531 27.75ZM31 15C31 15.4063 30.8748 15.7578 30.6244 16.0547L19.8693 28.8047C19.6188 29.1016 19.3223 29.25 18.9796 29.25C18.6369 29.25 18.3403 29.1016 18.0899 28.8047C17.8395 28.5078 17.7143 28.1563 17.7143 27.75V21H8.85714C8.51446 21 8.2179 20.8516 7.96747 20.5547C7.71705 20.2578 7.59184 19.9063 7.59184 19.5V10.5C7.59184 10.0937 7.71705 9.74219 7.96747 9.44531C8.2179 9.14844 8.51446 9 8.85714 9H17.7143V2.25C17.7143 1.84375 17.8395 1.49219 18.0899 1.19531C18.3403 0.898437 18.6369 0.75 18.9796 0.75C19.3223 0.75 19.6188 0.898437 19.8693 1.19531L30.6244 13.9453C30.8748 14.2422 31 14.5937 31 15Z" fill="white"/>
</svg>
